<svg width="170" height="45" viewBox="0 0 170 45" fill="none" xmlns="http://www.w3.org/2000/svg">
<path d="M41.44 36.168C40.272 36.168 39.216 35.968 38.272 35.568C37.344 35.168 36.608 34.592 36.064 33.84C35.52 33.088 35.24 32.2 35.224 31.176H38.824C38.872 31.864 39.112 32.408 39.544 32.808C39.992 33.208 40.6 33.408 41.368 33.408C42.152 33.408 42.768 33.224 43.216 32.856C43.664 32.472 43.888 31.976 43.888 31.368C43.888 30.872 43.736 30.464 43.432 30.144C43.128 29.824 42.744 29.576 42.28 29.4C41.832 29.208 41.208 29 40.408 28.776C39.32 28.456 38.432 28.144 37.744 27.84C37.072 27.52 36.488 27.048 35.992 26.424C35.512 25.784 35.272 24.936 35.272 23.88C35.272 22.888 35.52 22.024 36.016 21.288C36.512 20.552 37.208 19.992 38.104 19.608C39 19.208 40.024 19.008 41.176 19.008C42.904 19.008 44.304 19.432 45.376 20.28C46.464 21.112 47.064 22.28 47.176 23.784H43.48C43.448 23.208 43.2 22.736 42.736 22.368C42.288 21.984 41.688 21.792 40.936 21.792C40.28 21.792 39.752 21.96 39.352 22.296C38.968 22.632 38.776 23.12 38.776 23.76C38.776 24.208 38.92 24.584 39.208 24.888C39.512 25.176 39.88 25.416 40.312 25.608C40.76 25.784 41.384 25.992 42.184 26.232C43.272 26.552 44.16 26.872 44.848 27.192C45.536 27.512 46.128 27.992 46.624 28.632C47.12 29.272 47.368 30.112 47.368 31.152C47.368 32.048 47.136 32.88 46.672 33.648C46.208 34.416 45.528 35.032 44.632 35.496C43.736 35.944 42.672 36.168 41.44 36.168ZM54.193 25.464V31.896C54.193 32.344 54.297 32.672 54.505 32.88C54.729 33.072 55.097 33.168 55.609 33.168H57.169V36H55.057C52.225 36 50.809 34.624 50.809 31.872V25.464H49.225V22.704H50.809V19.416H54.193V22.704H57.169V25.464H54.193ZM62.9457 24.768C63.3777 24.064 63.9377 23.512 64.6257 23.112C65.3297 22.712 66.1297 22.512 67.0257 22.512V26.04H66.1377C65.0817 26.04 64.2817 26.288 63.7377 26.784C63.2097 27.28 62.9457 28.144 62.9457 29.376V36H59.5857V22.704H62.9457V24.768ZM81.6488 29.064C81.6488 29.544 81.6168 29.976 81.5528 30.36H71.8328C71.9128 31.32 72.2488 32.072 72.8408 32.616C73.4328 33.16 74.1608 33.432 75.0248 33.432C76.2728 33.432 77.1608 32.896 77.6888 31.824H81.3128C80.9288 33.104 80.1928 34.16 79.1048 34.992C78.0168 35.808 76.6808 36.216 75.0968 36.216C73.8168 36.216 72.6648 35.936 71.6408 35.376C70.6328 34.8 69.8408 33.992 69.2648 32.952C68.7048 31.912 68.4248 30.712 68.4248 29.352C68.4248 27.976 68.7048 26.768 69.2648 25.728C69.8248 24.688 70.6088 23.888 71.6168 23.328C72.6248 22.768 73.7848 22.488 75.0968 22.488C76.3608 22.488 77.4888 22.76 78.4808 23.304C79.4888 23.848 80.2648 24.624 80.8088 25.632C81.3688 26.624 81.6488 27.768 81.6488 29.064ZM78.1688 28.104C78.1528 27.24 77.8408 26.552 77.2328 26.04C76.6248 25.512 75.8808 25.248 75.0008 25.248C74.1688 25.248 73.4648 25.504 72.8888 26.016C72.3288 26.512 71.9848 27.208 71.8568 28.104H78.1688ZM83.2373 29.304C83.2373 27.96 83.5013 26.768 84.0293 25.728C84.5733 24.688 85.3013 23.888 86.2133 23.328C87.1413 22.768 88.1733 22.488 89.3093 22.488C90.3013 22.488 91.1653 22.688 91.9013 23.088C92.6533 23.488 93.2533 23.992 93.7013 24.6V22.704H97.0853V36H93.7013V34.056C93.2693 34.68 92.6693 35.2 91.9013 35.616C91.1493 36.016 90.2773 36.216 89.2853 36.216C88.1653 36.216 87.1413 35.928 86.2133 35.352C85.3013 34.776 84.5733 33.968 84.0293 32.928C83.5013 31.872 83.2373 30.664 83.2373 29.304ZM93.7013 29.352C93.7013 28.536 93.5413 27.84 93.2213 27.264C92.9013 26.672 92.4693 26.224 91.9253 25.92C91.3813 25.6 90.7973 25.44 90.1733 25.44C89.5493 25.44 88.9733 25.592 88.4453 25.896C87.9173 26.2 87.4853 26.648 87.1493 27.24C86.8293 27.816 86.6693 28.504 86.6693 29.304C86.6693 30.104 86.8293 30.808 87.1493 31.416C87.4853 32.008 87.9173 32.464 88.4453 32.784C88.9893 33.104 89.5653 33.264 90.1733 33.264C90.7973 33.264 91.3813 33.112 91.9253 32.808C92.4693 32.488 92.9013 32.04 93.2213 31.464C93.5413 30.872 93.7013 30.168 93.7013 29.352ZM116.879 22.512C118.511 22.512 119.823 23.016 120.815 24.024C121.823 25.016 122.327 26.408 122.327 28.2V36H118.967V28.656C118.967 27.616 118.703 26.824 118.175 26.28C117.647 25.72 116.927 25.44 116.015 25.44C115.103 25.44 114.375 25.72 113.831 26.28C113.303 26.824 113.039 27.616 113.039 28.656V36H109.679V28.656C109.679 27.616 109.415 26.824 108.887 26.28C108.359 25.72 107.639 25.44 106.727 25.44C105.799 25.44 105.063 25.72 104.519 26.28C103.991 26.824 103.727 27.616 103.727 28.656V36H100.367V22.704H103.727V24.312C104.159 23.752 104.711 23.312 105.383 22.992C106.071 22.672 106.823 22.512 107.639 22.512C108.679 22.512 109.607 22.736 110.423 23.184C111.239 23.616 111.871 24.24 112.319 25.056C112.751 24.288 113.375 23.672 114.191 23.208C115.023 22.744 115.919 22.512 116.879 22.512ZM135.547 27.36C136.523 27.568 137.307 28.056 137.899 28.824C138.491 29.576 138.787 30.44 138.787 31.416C138.787 32.824 138.291 33.944 137.299 34.776C136.323 35.592 134.955 36 133.195 36H125.347V19.152H132.931C134.643 19.152 135.979 19.544 136.939 20.328C137.915 21.112 138.403 22.176 138.403 23.52C138.403 24.512 138.139 25.336 137.611 25.992C137.099 26.648 136.411 27.104 135.547 27.36ZM129.451 25.968H132.139C132.811 25.968 133.323 25.824 133.675 25.536C134.043 25.232 134.227 24.792 134.227 24.216C134.227 23.64 134.043 23.2 133.675 22.896C133.323 22.592 132.811 22.44 132.139 22.44H129.451V25.968ZM132.475 32.688C133.163 32.688 133.691 32.536 134.059 32.232C134.443 31.912 134.635 31.456 134.635 30.864C134.635 30.272 134.435 29.808 134.035 29.472C133.651 29.136 133.115 28.968 132.427 28.968H129.451V32.688H132.475ZM147.264 36.192C145.952 36.192 144.768 35.912 143.712 35.352C142.672 34.792 141.848 33.992 141.24 32.952C140.648 31.912 140.352 30.696 140.352 29.304C140.352 27.928 140.656 26.72 141.264 25.68C141.872 24.624 142.704 23.816 143.76 23.256C144.816 22.696 146 22.416 147.312 22.416C148.624 22.416 149.808 22.696 150.864 23.256C151.92 23.816 152.752 24.624 153.36 25.68C153.968 26.72 154.272 27.928 154.272 29.304C154.272 30.68 153.96 31.896 153.336 32.952C152.728 33.992 151.888 34.792 150.816 35.352C149.76 35.912 148.576 36.192 147.264 36.192ZM147.264 32.64C148.048 32.64 148.712 32.352 149.256 31.776C149.816 31.2 150.096 30.376 150.096 29.304C150.096 28.232 149.824 27.408 149.28 26.832C148.752 26.256 148.096 25.968 147.312 25.968C146.512 25.968 145.848 26.256 145.32 26.832C144.792 27.392 144.528 28.216 144.528 29.304C144.528 30.376 144.784 31.2 145.296 31.776C145.824 32.352 146.48 32.64 147.264 32.64ZM164.369 36L161.801 32.28L159.641 36H155.201L159.617 29.16L155.081 22.608H159.689L162.257 26.304L164.417 22.608H168.857L164.369 29.352L168.977 36H164.369Z" fill="#AFAFAF"/>
<path d="M8.39944 27.2222L18.355 32.9777V41.9999L0.310547 31.7333L8.39944 27.2222Z" fill="#00AFEF"/>
<path d="M8.24444 15.5555V26.7555L0 31.2667V11.0444L8.24444 15.5555Z" fill="#00AFEF"/>
<path d="M36.866 10.1111L28.3105 14.9333L18.666 9.48889V0L36.866 10.1111Z" fill="#00AFEF"/>
<path d="M18.0439 0L0.310547 10.4222L8.39944 15.0889L18.0439 9.41999V0Z" fill="#007FBA"/>
<path d="M18.5112 10.2666L28.076 15.711V26.5999L18.5112 32.0444L8.94647 26.5999V15.711L18.5112 10.2666Z" fill="#007FBA"/>
</svg>
