<svg width="35" height="16" viewBox="0 0 35 16" fill="none" xmlns="http://www.w3.org/2000/svg">
<rect width="35" height="16" rx="8" fill="#007FBA" fill-opacity="0.41"/>
<ellipse cx="25.9375" cy="7.99992" rx="6.5625" ry="6.66667" fill="#007FBA"/>
<path d="M22.79 9.04784C22.6389 8.89856 22.5607 8.69998 22.5568 8.50004C22.5529 8.30015 22.6232 8.09842 22.7683 7.94296C22.9133 7.78761 23.1063 7.7072 23.3007 7.70319C23.4951 7.69908 23.6911 7.7712 23.8424 7.92058L25.1482 9.21294L27.7478 5.81621L27.841 5.8893L27.7477 5.81588C27.7552 5.80597 27.7636 5.79752 27.773 5.79063C27.9276 5.65284 28.1218 5.59064 28.3115 5.60126V5.60104L28.3208 5.60191C28.5116 5.61491 28.6981 5.70215 28.8357 5.86015C28.9758 6.02081 29.0392 6.22487 29.0286 6.42432H29.0289L29.028 6.43386C29.0156 6.62665 28.9337 6.81505 28.7852 6.95577L25.6653 10.8619L25.6655 10.8622C25.6597 10.8698 25.6531 10.8764 25.6459 10.8821C25.4998 11.014 25.3154 11.0787 25.1319 11.0755C24.947 11.0722 24.7624 10.9999 24.6188 10.8579L22.79 9.04784Z" fill="white"/>
</svg>
