<svg width="50" height="30" viewBox="0 0 50 30" fill="none" xmlns="http://www.w3.org/2000/svg">
<rect y="4" width="45" height="20" rx="10" fill="#D2E0F5"/>
<g filter="url(#filter0_d_3513_160126)">
<ellipse cx="33.3486" cy="14.0013" rx="8.4375" ry="8.33333" fill="#3767DD"/>
<path d="M29.3 15.3097C29.1057 15.1231 29.0053 14.8748 29.0002 14.6249C28.9952 14.3751 29.0856 14.1229 29.2721 13.9286C29.4585 13.7344 29.7068 13.6339 29.9566 13.6289C30.2066 13.6237 30.4586 13.7139 30.6531 13.9006L32.332 15.5161L35.6744 11.2701L35.7942 11.3615L35.6743 11.2697C35.6838 11.2573 35.6947 11.2468 35.7067 11.2382C35.9056 11.0659 36.1552 10.9882 36.3991 11.0015V11.0012L36.411 11.0023C36.6564 11.0185 36.8961 11.1276 37.0731 11.3251C37.2531 11.5259 37.3348 11.781 37.3212 12.0303H37.3214L37.3203 12.0422C37.3044 12.2832 37.199 12.5187 37.0082 12.6946L32.9969 17.5773L32.9971 17.5776C32.9896 17.5871 32.9812 17.5953 32.9719 17.6025C32.7841 17.7674 32.5469 17.8483 32.3111 17.8442C32.0733 17.8401 31.836 17.7497 31.6513 17.5722L29.3 15.3097Z" fill="white"/>
</g>
<defs>
<filter id="filter0_d_3513_160126" x="20.1074" y="-1" width="31.2861" height="32" filterUnits="userSpaceOnUse" color-interpolation-filters="sRGB">
<feFlood flood-opacity="0" result="BackgroundImageFix"/>
<feColorMatrix in="SourceAlpha" type="matrix" values="0 0 0 0 0 0 0 0 0 0 0 0 0 0 0 0 0 0 127 0" result="hardAlpha"/>
<feOffset dx="2" dy="1"/>
<feGaussianBlur stdDeviation="3"/>
<feColorMatrix type="matrix" values="0 0 0 0 0 0 0 0 0 0 0 0 0 0 0 0 0 0 0.25 0"/>
<feBlend mode="normal" in2="BackgroundImageFix" result="effect1_dropShadow_3513_160126"/>
<feBlend mode="normal" in="SourceGraphic" in2="effect1_dropShadow_3513_160126" result="shape"/>
</filter>
</defs>
</svg>
