<svg width="35" height="16" viewBox="0 0 35 16" fill="none" xmlns="http://www.w3.org/2000/svg">
    <rect width="35" height="16" rx="8" fill="#96CAE3"/>
    <ellipse cx="25.9375" cy="7.99992" rx="6.5625" ry="6.66667" fill="#007FBA"/>
    <path fill-rule="evenodd" clip-rule="evenodd" d="M23.1803 7.18904H23.7418V6.11338C23.7419 5.83585 23.8021 5.56108 23.9188 5.30482C24.0355 5.04857 24.2064 4.81588 24.4219 4.62011C24.6363 4.42356 24.8912 4.2676 25.1718 4.16119C25.4524 4.05478 25.7532 4 26.0571 4C26.3609 4 26.6618 4.05478 26.9424 4.16119C27.223 4.2676 27.4779 4.42356 27.6923 4.62011C27.9077 4.81588 28.0787 5.04857 28.1954 5.30482C28.3121 5.56108 28.3722 5.83585 28.3724 6.11338V7.18904H27.4872L27.4708 6.10142C27.4699 5.75931 27.3205 5.43149 27.0553 5.18984C26.8575 5.00948 26.6056 4.88666 26.3314 4.83685C26.0572 4.78705 25.773 4.81251 25.5146 4.91001C25.2562 5.0075 25.0352 5.17268 24.8795 5.38471C24.7238 5.59674 24.6403 5.84612 24.6396 6.10142V7.18904H28.8197C28.8675 7.18919 28.9132 7.20659 28.947 7.23744C28.9808 7.26828 28.9998 7.31007 29 7.3537V10.8353C28.9998 10.879 28.9808 10.9208 28.947 10.9516C28.9132 10.9825 28.8675 10.9998 28.8197 11H23.1803C23.1325 10.9998 23.0868 10.9825 23.053 10.9516C23.0192 10.9208 23.0002 10.879 23 10.8353V7.35598C22.9998 7.33418 23.0042 7.31256 23.0132 7.29235C23.0221 7.27215 23.0354 7.25376 23.0521 7.23824C23.0689 7.22273 23.0888 7.21039 23.1108 7.20195C23.1328 7.1935 23.1564 7.18912 23.1803 7.18904ZM26.0664 9.09481L26.3522 10.2992H25.5686L25.7988 9.07885C25.6758 9.04303 25.5713 8.9675 25.5049 8.8664C25.4384 8.7653 25.4146 8.64556 25.4379 8.52958C25.4611 8.41361 25.5299 8.30935 25.6312 8.23631C25.7326 8.16328 25.8596 8.12647 25.9886 8.13279C26.1175 8.1391 26.2395 8.1881 26.3317 8.27061C26.4239 8.35312 26.4801 8.46349 26.4896 8.58108C26.4992 8.69866 26.4615 8.81539 26.3836 8.90942C26.3057 9.00345 26.1929 9.06835 26.0664 9.09196V9.09481Z" fill="white"/>
</svg>
