<svg width="17" height="14" viewBox="0 0 17 14" fill="none" xmlns="http://www.w3.org/2000/svg">
<path d="M12.6476 0V1.17067H14.1127V2.44153H12.6476V4.46721L11.3665 4.97912V2.44015H2.74618V11.5104H11.3665V9.96647L12.6476 9.55063V11.5146H14.1127V12.7854H12.6476V14.0014H11.3665V12.7854H2.74618V14.0014H1.46509V12.7854H0V11.5146H1.46509V2.44153H0V1.17067H1.46509V0H2.74618V1.17067H11.3665V0H12.6476ZM11.8577 6.35428C12.3253 6.9005 12.6545 7.48927 12.8316 8.12469L16.585 5.40731C16.9045 5.20694 17.0996 5.02304 16.9502 4.5921C16.8603 4.45623 16.7537 4.37251 16.6306 4.33957C16.5075 4.30664 16.3678 4.32585 16.2128 4.39722L11.8577 6.35428ZM6.21867 10.4962C7.35311 9.98431 8.79606 11.0534 9.66626 9.94589C9.8973 9.65219 10.0218 9.21302 9.94157 8.83011C9.90975 8.67503 9.84473 8.53093 9.74373 8.41016C9.69808 8.35663 9.64689 8.30722 9.5874 8.26193C8.85002 7.69924 7.88574 8.09725 7.29777 8.68876C6.75822 9.2336 6.42204 9.9802 6.21867 10.4962ZM10.0232 7.87903C10.2376 8.05333 10.5046 8.43211 10.5143 8.79169L12.512 8.28389C12.317 7.58533 12.014 6.96089 11.5284 6.46544C10.7869 7.13244 10.8381 7.26693 10.0232 7.87903ZM7.86499 6.32134L6.24772 8.0698V5.4128H4.72453V4.08019H9.38818V5.4128H7.86499V6.32134Z" fill="#8C969E"/>
</svg>
