<svg width="12" height="11" viewBox="0 0 12 11" fill="none" xmlns="http://www.w3.org/2000/svg">
<g clip-path="url(#clip0_518_3959)">
<g clip-path="url(#clip1_518_3959)">
<path fill-rule="evenodd" clip-rule="evenodd" d="M10.7424 9.67535C10.7009 9.77435 10.6398 9.86408 10.5628 9.93927L9.74538 10.7514C9.66821 10.8305 9.57546 10.8929 9.47292 10.9348C9.32311 11.0003 9.15649 11.0178 8.99619 10.985C8.83589 10.9521 8.68986 10.8705 8.57839 10.7514L8.09011 10.2769C8.09011 9.6773 8.09011 9.20962 8.09011 9.10483C8.09011 9.00781 8.09011 8.94183 8.09011 8.91078C8.09185 8.89019 8.09511 8.86976 8.09987 8.84965L8.10768 8.82539C8.13556 8.71873 8.17315 8.6148 8.21999 8.51491C8.30467 8.34834 8.40505 8.19012 8.51979 8.04238C9.05788 7.31953 9.32057 6.48994 9.25221 5.69044C9.03835 3.07264 5.76198 1.89764 3.80886 3.77318C3.02761 4.52029 2.62819 5.6361 2.92018 6.69467C3.15261 7.53978 3.65261 7.95603 4.07643 8.64492C4.1402 8.74845 4.19352 8.85797 4.23561 8.97191V8.97967C4.24512 9.0061 4.25199 9.0334 4.25612 9.06117C4.26589 9.11939 4.27272 9.18634 4.27858 9.26687V9.29695C4.28542 9.39398 4.29128 9.82187 4.29714 10.373C4.21608 10.34 4.13503 10.3041 4.05104 10.2672C3.96706 10.2304 3.85573 10.178 3.76979 10.1304C3.74147 10.1168 3.71315 10.0984 3.68386 10.0838L3.2278 10.5457L3.21706 10.5564C3.13963 10.6292 3.04922 10.6871 2.95046 10.7271C2.8523 10.7659 2.74749 10.7854 2.64186 10.7844C2.53592 10.7853 2.43081 10.7659 2.33229 10.7271C2.23361 10.6879 2.14319 10.6306 2.06569 10.5583C2.06569 10.5583 2.05788 10.5583 2.05788 10.5496L1.24245 9.72969C1.16286 9.65485 1.0996 9.56455 1.05659 9.46441C1.01359 9.36426 0.991756 9.2564 0.992449 9.14753C0.992207 9.0374 1.01481 8.9284 1.05886 8.82734C1.10098 8.7288 1.16354 8.6402 1.24245 8.5673L1.76979 8.05306C1.64406 7.80565 1.54582 7.54538 1.47682 7.27684H0.825457C0.716721 7.27662 0.609017 7.25587 0.508074 7.21571C0.409207 7.17463 0.320064 7.1135 0.246355 7.03621C0.16863 6.95948 0.10603 6.86898 0.061785 6.76938C0.0219198 6.67164 0.00104424 6.56727 0.000261527 6.46181V5.29748C-0.0025638 5.18901 0.0175294 5.08116 0.0592446 4.98089C0.10096 4.88061 0.16337 4.79014 0.242449 4.71531C0.318537 4.64075 0.408844 4.58203 0.508074 4.5426C0.608962 4.50226 0.716702 4.48151 0.825457 4.48148H1.56276C1.67116 4.20495 1.77663 3.98664 1.90944 3.72272L1.4446 3.26863C1.36862 3.18949 1.30921 3.09616 1.26979 2.99405C1.19293 2.79644 1.19293 2.57747 1.26979 2.37986C1.30814 2.28211 1.36444 2.1923 1.43581 2.11498C1.71218 1.84039 1.99147 1.56871 2.26979 1.2951C2.34659 1.21789 2.43826 1.15684 2.53932 1.1156C2.63982 1.07243 2.7482 1.0503 2.85768 1.05059C2.96687 1.05021 3.07494 1.07234 3.17507 1.1156C3.27286 1.15931 3.36111 1.2216 3.43483 1.29898L3.95729 1.81807C4.20637 1.69331 4.46831 1.59571 4.73854 1.52699V0.879818C4.73876 0.771783 4.75964 0.664772 4.80007 0.564479C4.8409 0.463423 4.90242 0.371899 4.98073 0.295713C5.38796 -0.0923964 7.17507 -0.189424 7.48366 0.564479C7.52348 0.664915 7.54402 0.771872 7.54421 0.879818V1.61626C7.82253 1.72396 8.04323 1.82875 8.30886 1.9607L8.76589 1.50662C8.84225 1.42969 8.93231 1.36751 9.03151 1.32323C9.13176 1.28036 9.23975 1.25825 9.3489 1.25825C9.45804 1.25825 9.56603 1.28036 9.66628 1.32323C9.76707 1.36516 9.8579 1.42764 9.93288 1.50662L10.7503 2.31874C10.8299 2.39521 10.8936 2.48654 10.9378 2.5875C10.9809 2.6871 11.0032 2.7944 11.0032 2.90284C11.0032 3.01128 10.9809 3.11858 10.9378 3.21818C10.8942 3.31557 10.8314 3.40333 10.7532 3.47627L10.2307 4.00507C10.3284 4.23697 10.4788 4.52902 10.5237 4.77644H11.1731C11.2818 4.77666 11.3896 4.7974 11.4905 4.83757C11.5895 4.87839 11.6787 4.93956 11.7522 5.01707L11.761 5.02483C11.8346 5.1009 11.8941 5.18925 11.9368 5.28583C11.9767 5.38322 11.9976 5.48728 11.9983 5.59244V6.75677C11.9979 6.86479 11.977 6.97176 11.9368 7.07211C11.894 7.17189 11.8331 7.263 11.7571 7.34088C11.681 7.41731 11.5904 7.478 11.4905 7.51941C11.3896 7.55975 11.2819 7.5805 11.1731 7.58053H10.4319C10.3225 7.859 10.219 8.0744 10.0852 8.33929L10.5471 8.78949C10.6246 8.86574 10.6871 8.95554 10.7317 9.05438C10.7749 9.15398 10.7971 9.26128 10.7971 9.36972C10.7971 9.47816 10.7749 9.58545 10.7317 9.68506L10.7454 9.67535H10.7424ZM4.303 6.92075C4.02077 6.4783 3.85768 5.96891 4.12233 5.27904C4.33034 4.73472 4.80593 4.28839 5.41628 4.03903C4.428 6.20954 7.26686 6.98575 7.35182 4.4155C8.30202 5.19948 8.29421 6.35605 7.59694 7.28945C7.26882 7.7319 7.17995 7.98029 7.10866 8.23353C7.07017 8.38204 7.05372 8.53535 7.05983 8.68859C7.05983 8.8351 7.05983 9.65886 7.06862 10.2934H5.30007C5.29128 9.71126 5.28249 8.93504 5.2737 8.80696C5.27104 8.63271 5.24004 8.46004 5.1819 8.29562C5.10182 8.08605 5.00514 7.89393 4.71804 7.49903C4.58718 7.31856 4.42507 7.11092 4.303 6.91687V6.92075Z" fill="#8C969E"/>
</g>
</g>
<defs>
<clipPath id="clip0_518_3959">
<rect width="12" height="11" fill="white"/>
</clipPath>
<clipPath id="clip1_518_3959">
<rect width="12" height="11" fill="white"/>
</clipPath>
</defs>
</svg>
